<?xml version="1.0" encoding="UTF-8" standalone="no"?>
<!-- Created with Inkscape (http://www.inkscape.org/) -->

<svg
   xmlns:dc="http://purl.org/dc/elements/1.1/"
   xmlns:cc="http://creativecommons.org/ns#"
   xmlns:rdf="http://www.w3.org/1999/02/22-rdf-syntax-ns#"
   xmlns:svg="http://www.w3.org/2000/svg"
   xmlns="http://www.w3.org/2000/svg"
   xmlns:xlink="http://www.w3.org/1999/xlink"
   version="1.2"
   width="475"
   height="375"
   id="svg2"
   style="fill:none;stroke:none">
  <metadata
     id="metadata36">
    <rdf:RDF>
      <cc:Work
         rdf:about="">
        <dc:format>image/svg+xml</dc:format>
        <dc:type
           rdf:resource="http://purl.org/dc/dcmitype/StillImage" />
        <dc:title></dc:title>
      </cc:Work>
    </rdf:RDF>
  </metadata>
  <defs
     id="defs34" />
  <g
     id="layer1">
    <path
       d="m 247,60.87021 0,0 c 0,-7.98065 6.4696,-14.45026 14.45026,-14.45026 l 170.56406,0 c 3.8324,0 7.50787,1.52243 10.2178,4.23238 2.71,2.70996 4.23245,6.38544 4.23245,10.21788 l 0,52.98923 c 0,7.98068 -6.46961,14.45028 -14.45025,14.45028 l -170.56406,0 C 253.4696,128.30972 247,121.84012 247,113.85944 z"
       id="path4"
       style="fill:#efecfd;fill-opacity:1;stroke:#000000;stroke-width:1;stroke-linecap:butt;stroke-linejoin:round;stroke-miterlimit:10;stroke-dasharray:none" />
    <path
       d="m 247,160.50538 0,0 c 0,-7.98066 6.46961,-14.45027 14.45027,-14.45027 l 170.56405,0 c 3.83241,0 7.50787,1.52243 10.21781,4.23238 2.70999,2.70996 4.23245,6.38544 4.23245,10.21789 l 0,52.98922 c 0,7.98069 -6.46961,14.45028 -14.45026,14.45028 l -170.56405,0 C 253.46961,227.94488 247,221.47528 247,213.4946 z"
       id="path4-4"
       style="fill:#efecfd;fill-opacity:1;stroke:#000000;stroke-width:1;stroke-linecap:butt;stroke-linejoin:round;stroke-miterlimit:10;stroke-dasharray:none" />
    <path
       d="m 247,256.50538 0,0 c 0,-7.98066 6.46961,-14.45027 14.45027,-14.45027 l 170.56405,0 c 3.83241,0 7.50787,1.52243 10.21781,4.23238 2.70999,2.70996 4.23245,6.38544 4.23245,10.21789 l 0,52.98922 c 0,7.98068 -6.46961,14.45028 -14.45026,14.45028 l -170.56406,0 C 253.46961,323.94488 247,317.47528 247,309.4946 z"
       id="path4-2"
       style="fill:#efecfd;fill-opacity:1;stroke:#000000;stroke-width:1;stroke-linecap:butt;stroke-linejoin:round;stroke-miterlimit:10;stroke-dasharray:none" />
    <path
       d="m 23,49.204746 83.40157,0 0,35.795254 L 23,85 z"
       id="path16"
       style="fill:#d2fff1;fill-opacity:1;stroke:#000000;stroke-width:0.73229474;stroke-linecap:butt;stroke-linejoin:round;stroke-miterlimit:10;stroke-dasharray:none" />
    <path
       d="m 23,85 83.40158,0 0,35.79526 -83.40158,0 z"
       id="path16-0"
       style="fill:#d2fff1;fill-opacity:1;stroke:#000000;stroke-width:0.73229474;stroke-linecap:butt;stroke-linejoin:round;stroke-miterlimit:10;stroke-dasharray:none" />
    <path
       d="m 23,121.10237 83.40158,0 0,35.79526 -83.40158,0 z"
       id="path16-0-1"
       style="fill:#d2fff1;fill-opacity:1;stroke:#000000;stroke-width:0.73229474;stroke-linecap:butt;stroke-linejoin:round;stroke-miterlimit:10;stroke-dasharray:none" />
    <path
       d="m 23,157.10479 83.40157,0 0,35.79525 -83.40157,0 z"
       id="path16-1"
       style="fill:#ffa975;fill-opacity:1;stroke:#000000;stroke-width:0.73229474;stroke-linecap:butt;stroke-linejoin:round;stroke-miterlimit:10;stroke-dasharray:none" />
    <path
       d="m 23,192.90004 83.40158,0 0,35.79526 -83.40158,0 z"
       id="path16-0-7"
       style="fill:#ffa975;fill-opacity:1;stroke:#000000;stroke-width:0.73229474;stroke-linecap:butt;stroke-linejoin:round;stroke-miterlimit:10;stroke-dasharray:none" />
    <path
       d="m 23,229.00241 83.40158,0 0,35.79526 -83.40158,0 z"
       id="path16-0-1-4"
       style="fill:#ffa975;fill-opacity:1;stroke:#000000;stroke-width:0.73229474;stroke-linecap:butt;stroke-linejoin:round;stroke-miterlimit:10;stroke-dasharray:none" />
  </g>
  <g
     id="layer2">
    <text
       x="13"
       y="39"
       id="text4042"
       xml:space="preserve"
       style="font-size:20px;font-style:normal;font-variant:normal;font-weight:normal;font-stretch:normal;text-align:start;line-height:125%;writing-mode:lr-tb;text-anchor:start;fill:#000000;fill-opacity:1;stroke:none;font-family:Serif;-inkscape-font-specification:Serif"><tspan
         x="13"
         y="39"
         id="tspan4044"><tspan
           x="13"
           y="39"
           id="tspan4046">Buffer Object</tspan></tspan></text>
    <text
       x="284"
       y="39.000004"
       id="text4066"
       xml:space="preserve"
       style="font-size:20px;font-style:normal;font-variant:normal;font-weight:normal;font-stretch:normal;text-align:start;line-height:125%;writing-mode:lr-tb;text-anchor:start;fill:#000000;fill-opacity:1;stroke:none;font-family:Serif;-inkscape-font-specification:Serif"><tspan
         x="284"
         y="39.000004"
         id="tspan4068"><tspan
           x="284"
           y="39.000004"
           id="tspan4070">Vertex Shaders</tspan></tspan></text>
    <text
       x="35.826771"
       y="73.420509"
       id="text4036"
       xml:space="preserve"
       style="font-size:20px;font-style:normal;font-variant:normal;font-weight:normal;font-stretch:normal;text-align:start;line-height:125%;writing-mode:lr-tb;text-anchor:start;fill:#000000;fill-opacity:1;stroke:none;font-family:Serif;-inkscape-font-specification:Serif"><tspan
         x="35.826771"
         y="73.420509"
         id="tspan4038"><tspan
           x="35.826771"
           y="73.420509"
           id="tspan4040">Index 0</tspan></tspan></text>
    <text
       x="35.826771"
       y="109.21577"
       id="text4030"
       xml:space="preserve"
       style="font-size:20px;font-style:normal;font-variant:normal;font-weight:normal;font-stretch:normal;text-align:start;line-height:125%;writing-mode:lr-tb;text-anchor:start;fill:#000000;fill-opacity:1;stroke:none;font-family:Serif;-inkscape-font-specification:Serif"><tspan
         x="35.826771"
         y="109.21577"
         id="tspan4032"><tspan
           x="35.826771"
           y="109.21577"
           id="tspan4034">Index 1</tspan></tspan></text>
    <text
       x="35.826771"
       y="145.31813"
       id="text4024"
       xml:space="preserve"
       style="font-size:20px;font-style:normal;font-variant:normal;font-weight:normal;font-stretch:normal;text-align:start;line-height:125%;writing-mode:lr-tb;text-anchor:start;fill:#000000;fill-opacity:1;stroke:none;font-family:Serif;-inkscape-font-specification:Serif"><tspan
         x="35.826771"
         y="145.31813"
         id="tspan4026"><tspan
           x="35.826771"
           y="145.31813"
           id="tspan4028">Index 2</tspan></tspan></text>
    <text
       x="260.75"
       y="70.344383"
       id="text4060"
       xml:space="preserve"
       style="font-size:20px;font-style:normal;font-variant:normal;font-weight:normal;font-stretch:normal;text-align:start;line-height:125%;writing-mode:lr-tb;text-anchor:start;fill:#00745e;fill-opacity:1;stroke:none;font-family:Serif;-inkscape-font-specification:Serif"><tspan
         x="260.75"
         y="70.344383"
         id="tspan4062"><tspan
           x="260.75"
           y="70.344383"
           id="tspan4064"
           style="fill:#00745e;fill-opacity:1">in vec4 position</tspan></tspan></text>
    <text
       x="260.75"
       y="168.97955"
       id="text4054"
       xml:space="preserve"
       style="font-size:20px;font-style:normal;font-variant:normal;font-weight:normal;font-stretch:normal;text-align:start;line-height:125%;writing-mode:lr-tb;text-anchor:start;fill:#00745e;fill-opacity:1;stroke:none;font-family:Serif;-inkscape-font-specification:Serif"><tspan
         x="260.75"
         y="168.97955"
         id="tspan4056"><tspan
           x="260.75"
           y="168.97955"
           id="tspan4058"
           style="fill:#00745e;fill-opacity:1">in vec4 position</tspan></tspan></text>
    <text
       x="260.75"
       y="266.22955"
       id="text4048"
       xml:space="preserve"
       style="font-size:20px;font-style:normal;font-variant:normal;font-weight:normal;font-stretch:normal;text-align:start;line-height:125%;writing-mode:lr-tb;text-anchor:start;fill:#00745e;fill-opacity:1;stroke:none;font-family:Serif;-inkscape-font-specification:Serif"><tspan
         x="260.75"
         y="266.22955"
         id="tspan4050"><tspan
           x="260.75"
           y="266.22955"
           id="tspan4052"
           style="fill:#00745e;fill-opacity:1">in vec4 position</tspan></tspan></text>
    <path
       d="m 106,68 c 20.53861,0 28.07937,-13.597416 41.30057,-13.597416 18.59259,0.516592 46.78578,7.078799 65.43463,7.362217 C 231.83848,62.055125 239.29894,65 258,65"
       id="path3912"
       style="fill:none;stroke:#00745e;stroke-width:1px;stroke-linecap:butt;stroke-linejoin:miter;stroke-opacity:1" />
    <path
       d="m 106.5,102.5 c 29.39782,0 58.60756,14.24592 77.6668,30.75 34.14983,29.57157 30.02055,31.10355 73.8332,30.75"
       id="path3914"
       style="fill:none;stroke:#00745e;stroke-width:1px;stroke-linecap:butt;stroke-linejoin:miter;stroke-opacity:1" />
    <path
       d="m 106.06602,138.47278 c 38.18376,-1.06066 49.49747,12.72792 64.34672,51.97235 14.84924,39.24442 40.9774,70.71068 85.91347,70.71068"
       id="path3916"
       style="fill:none;stroke:#00745e;stroke-width:1px;stroke-linecap:butt;stroke-linejoin:miter;stroke-opacity:1" />
    <text
       x="35.826771"
       y="181.32056"
       id="text4036-0"
       xml:space="preserve"
       style="font-size:20px;font-style:normal;font-variant:normal;font-weight:normal;font-stretch:normal;text-align:start;line-height:125%;writing-mode:lr-tb;text-anchor:start;fill:#000000;fill-opacity:1;stroke:none;font-family:Serif;-inkscape-font-specification:Serif"><tspan
         x="35.826771"
         y="181.32056"
         id="tspan4038-9"><tspan
           x="35.826771"
           y="181.32056"
           id="tspan4040-4">Index 0</tspan></tspan></text>
    <text
       x="35.826771"
       y="217.11581"
       id="text4030-8"
       xml:space="preserve"
       style="font-size:20px;font-style:normal;font-variant:normal;font-weight:normal;font-stretch:normal;text-align:start;line-height:125%;writing-mode:lr-tb;text-anchor:start;fill:#000000;fill-opacity:1;stroke:none;font-family:Serif;-inkscape-font-specification:Serif"><tspan
         x="35.826771"
         y="217.11581"
         id="tspan4032-8"><tspan
           x="35.826771"
           y="217.11581"
           id="tspan4034-2">Index 1</tspan></tspan></text>
    <text
       x="35.826771"
       y="253.21817"
       id="text4024-4"
       xml:space="preserve"
       style="font-size:20px;font-style:normal;font-variant:normal;font-weight:normal;font-stretch:normal;text-align:start;line-height:125%;writing-mode:lr-tb;text-anchor:start;fill:#000000;fill-opacity:1;stroke:none;font-family:Serif;-inkscape-font-specification:Serif"><tspan
         x="35.826771"
         y="253.21817"
         id="tspan4026-5"><tspan
           x="35.826771"
           y="253.21817"
           id="tspan4028-5">Index 2</tspan></tspan></text>
    <text
       x="260.75"
       y="291.59439"
       id="text3042"
       xml:space="preserve"
       style="font-size:20px;font-style:normal;font-variant:normal;font-weight:normal;font-stretch:normal;text-align:start;line-height:125%;letter-spacing:0px;word-spacing:0px;writing-mode:lr-tb;text-anchor:start;fill:#a46d4a;fill-opacity:1;stroke:none;font-family:Serif;-inkscape-font-specification:Serif"><tspan
         x="260.75"
         y="291.59439"
         id="tspan3044"><tspan
           x="260.75"
           y="291.59439"
           id="tspan3046">in vec4 color</tspan></tspan></text>
	<use
       transform="translate(0,-98.75)"
       id="use3812"
       x="0"
       y="0"
       width="475"
       height="375"
       xlink:href="#text3042" />
	<use
       transform="translate(0,-196.75)"
       id="use3812"
       x="0"
       y="0"
       width="475"
       height="375"
       xlink:href="#text3042" />
    <path
       d="M 106.25,176 C 178,176 181,90.5 256,90.5"
       id="path3814"
       style="fill:none;stroke:#a46d4a;stroke-width:1px;stroke-linecap:butt;stroke-linejoin:miter;stroke-opacity:1" />
    <path
       d="m 106.75,211.25 c 65,0 95.5,-21.75 149.25,-21.75"
       id="path3816"
       style="fill:none;stroke:#a46d4a;stroke-width:1px;stroke-linecap:butt;stroke-linejoin:miter;stroke-opacity:1" />
    <path
       d="m 106.5,248.5 c 68.75,0 96,38.5 148.5,38.5"
       id="path3818"
       style="fill:none;stroke:#a46d4a;stroke-width:1px;stroke-linecap:butt;stroke-linejoin:miter;stroke-opacity:1" />
  </g>
</svg>
