<?xml version="1.0" encoding="UTF-8"?>
<!DOCTYPE svg PUBLIC "-//W3C//DTD SVG 1.1//EN" "http://www.w3.org/Graphics/SVG/1.1/DTD/svg11.dtd">

<svg xmlns="http://www.w3.org/2000/svg" xmlns:xlink="http://www.w3.org/1999/xlink" version="1.1" height="400px" width="400px" >
	<style type="text/css" ><![CDATA[.grid
{
	stroke: #888;
	stroke-width: 1.5px;
	fill: none;
}

.sample_box
{
	stroke-opacity: 0.7;
	stroke-width: 7px;
	stroke-linejoin: round;
	stroke: red;
	fill: none;
}

.sample_pt
{
	fill: goldenrod;
	stroke: none;
}

.color_0
{
	fill: #000000;
	stroke: none;
}

.color_1
{
	fill: #FFFFFF;
	stroke: none;
}]]></style>
	<defs />
	<rect y="0" x="0" height="100" width="100" class="color_0" />
	<rect y="0" x="100" height="100" width="100" class="color_0" />
	<rect y="0" x="200" height="100" width="100" class="color_1" />
	<rect y="0" x="300" height="100" width="100" class="color_1" />
	<rect y="100" x="0" height="100" width="100" class="color_0" />
	<rect y="100" x="100" height="100" width="100" class="color_0" />
	<rect y="100" x="200" height="100" width="100" class="color_1" />
	<rect y="100" x="300" height="100" width="100" class="color_1" />
	<rect y="200" x="0" height="100" width="100" class="color_1" />
	<rect y="200" x="100" height="100" width="100" class="color_1" />
	<rect y="200" x="200" height="100" width="100" class="color_0" />
	<rect y="200" x="300" height="100" width="100" class="color_0" />
	<rect y="300" x="0" height="100" width="100" class="color_1" />
	<rect y="300" x="100" height="100" width="100" class="color_1" />
	<rect y="300" x="200" height="100" width="100" class="color_0" />
	<rect y="300" x="300" height="100" width="100" class="color_0" />
	<path d="M 0 100 h 400 M 0 200 h 400 M 0 300 h 400 M 100 0 v 400 M 200 0 v 400 M 300 0 v 400" class="grid" />
	<path d="M 135 265 L 135 185 L 215 185 L 215 265 Z" class="sample_box" />
	<circle r="5" cy="225" cx="175" class="sample_pt" />
</svg>