<?xml version="1.0" encoding="UTF-8"?>
<!DOCTYPE svg PUBLIC "-//W3C//DTD SVG 1.1//EN" "http://www.w3.org/Graphics/SVG/1.1/DTD/svg11.dtd">

<svg xmlns="http://www.w3.org/2000/svg" xmlns:xlink="http://www.w3.org/1999/xlink" version="1.1" height="350px" width="350px" >
	<style type="text/css" ><![CDATA[.frag_area
{
	stroke-opacity: 0.7;
	stroke-width: 7px;
	stroke-linejoin: round;
	stroke: red;
	fill: none;
}

.sample_box
{
	stroke: #4B4;
	stroke-width: 4px;
	fill: none;
}

.color_0
{
	fill: #000000;
	stroke: none;
}

.color_1
{
	fill: #FFFFFF;
	stroke: none;
}

.grid
{
	stroke: #888;
	stroke-width: 1.5px;
	fill: none;
}

.sample_pt
{
	fill: goldenrod;
	stroke: none;
}]]></style>
	<defs />
	<rect y="0" x="0" height="43.75" width="43.75" class="color_1" />
	<rect y="0" x="43.75" height="43.75" width="43.75" class="color_1" />
	<rect y="0" x="87.5" height="43.75" width="43.75" class="color_0" />
	<rect y="0" x="131.25" height="43.75" width="43.75" class="color_0" />
	<rect y="0" x="175" height="43.75" width="43.75" class="color_1" />
	<rect y="0" x="218.75" height="43.75" width="43.75" class="color_1" />
	<rect y="0" x="262.5" height="43.75" width="43.75" class="color_0" />
	<rect y="0" x="306.25" height="43.75" width="43.75" class="color_0" />
	<rect y="43.75" x="0" height="43.75" width="43.75" class="color_1" />
	<rect y="43.75" x="43.75" height="43.75" width="43.75" class="color_1" />
	<rect y="43.75" x="87.5" height="43.75" width="43.75" class="color_0" />
	<rect y="43.75" x="131.25" height="43.75" width="43.75" class="color_0" />
	<rect y="43.75" x="175" height="43.75" width="43.75" class="color_1" />
	<rect y="43.75" x="218.75" height="43.75" width="43.75" class="color_1" />
	<rect y="43.75" x="262.5" height="43.75" width="43.75" class="color_0" />
	<rect y="43.75" x="306.25" height="43.75" width="43.75" class="color_0" />
	<rect y="87.5" x="0" height="43.75" width="43.75" class="color_0" />
	<rect y="87.5" x="43.75" height="43.75" width="43.75" class="color_0" />
	<rect y="87.5" x="87.5" height="43.75" width="43.75" class="color_1" />
	<rect y="87.5" x="131.25" height="43.75" width="43.75" class="color_1" />
	<rect y="87.5" x="175" height="43.75" width="43.75" class="color_0" />
	<rect y="87.5" x="218.75" height="43.75" width="43.75" class="color_0" />
	<rect y="87.5" x="262.5" height="43.75" width="43.75" class="color_1" />
	<rect y="87.5" x="306.25" height="43.75" width="43.75" class="color_1" />
	<rect y="131.25" x="0" height="43.75" width="43.75" class="color_0" />
	<rect y="131.25" x="43.75" height="43.75" width="43.75" class="color_0" />
	<rect y="131.25" x="87.5" height="43.75" width="43.75" class="color_1" />
	<rect y="131.25" x="131.25" height="43.75" width="43.75" class="color_1" />
	<rect y="131.25" x="175" height="43.75" width="43.75" class="color_0" />
	<rect y="131.25" x="218.75" height="43.75" width="43.75" class="color_0" />
	<rect y="131.25" x="262.5" height="43.75" width="43.75" class="color_1" />
	<rect y="131.25" x="306.25" height="43.75" width="43.75" class="color_1" />
	<rect y="175" x="0" height="43.75" width="43.75" class="color_1" />
	<rect y="175" x="43.75" height="43.75" width="43.75" class="color_1" />
	<rect y="175" x="87.5" height="43.75" width="43.75" class="color_0" />
	<rect y="175" x="131.25" height="43.75" width="43.75" class="color_0" />
	<rect y="175" x="175" height="43.75" width="43.75" class="color_1" />
	<rect y="175" x="218.75" height="43.75" width="43.75" class="color_1" />
	<rect y="175" x="262.5" height="43.75" width="43.75" class="color_0" />
	<rect y="175" x="306.25" height="43.75" width="43.75" class="color_0" />
	<rect y="218.75" x="0" height="43.75" width="43.75" class="color_1" />
	<rect y="218.75" x="43.75" height="43.75" width="43.75" class="color_1" />
	<rect y="218.75" x="87.5" height="43.75" width="43.75" class="color_0" />
	<rect y="218.75" x="131.25" height="43.75" width="43.75" class="color_0" />
	<rect y="218.75" x="175" height="43.75" width="43.75" class="color_1" />
	<rect y="218.75" x="218.75" height="43.75" width="43.75" class="color_1" />
	<rect y="218.75" x="262.5" height="43.75" width="43.75" class="color_0" />
	<rect y="218.75" x="306.25" height="43.75" width="43.75" class="color_0" />
	<rect y="262.5" x="0" height="43.75" width="43.75" class="color_0" />
	<rect y="262.5" x="43.75" height="43.75" width="43.75" class="color_0" />
	<rect y="262.5" x="87.5" height="43.75" width="43.75" class="color_1" />
	<rect y="262.5" x="131.25" height="43.75" width="43.75" class="color_1" />
	<rect y="262.5" x="175" height="43.75" width="43.75" class="color_0" />
	<rect y="262.5" x="218.75" height="43.75" width="43.75" class="color_0" />
	<rect y="262.5" x="262.5" height="43.75" width="43.75" class="color_1" />
	<rect y="262.5" x="306.25" height="43.75" width="43.75" class="color_1" />
	<rect y="306.25" x="0" height="43.75" width="43.75" class="color_0" />
	<rect y="306.25" x="43.75" height="43.75" width="43.75" class="color_0" />
	<rect y="306.25" x="87.5" height="43.75" width="43.75" class="color_1" />
	<rect y="306.25" x="131.25" height="43.75" width="43.75" class="color_1" />
	<rect y="306.25" x="175" height="43.75" width="43.75" class="color_0" />
	<rect y="306.25" x="218.75" height="43.75" width="43.75" class="color_0" />
	<rect y="306.25" x="262.5" height="43.75" width="43.75" class="color_1" />
	<rect y="306.25" x="306.25" height="43.75" width="43.75" class="color_1" />
	<path d="M 0 43.75 h 350 M 0 87.5 h 350 M 0 131.25 h 350 M 0 175 h 350 M 0 218.75 h 350 M 0 262.5 h 350 M 0 306.25 h 350 M 43.75 0 v 350 M 87.5 0 v 350 M 131.25 0 v 350 M 175 0 v 350 M 218.75 0 v 350 M 262.5 0 v 350 M 306.25 0 v 350" class="grid" />
	<rect y="218.75" x="43.75" height="43.75" width="43.75" class="sample_box" />
	<rect y="218.75" x="175" height="43.75" width="43.75" class="sample_box" />
	<rect y="175" x="175" height="43.75" width="43.75" class="sample_box" />
	<rect y="175" x="87.5" height="87.5" width="87.5" class="sample_box" />
	<path d="M 52.5 275.625 L 78.75 161.875 L 231.875 157.5 L 188.125 271.25 Z" class="frag_area" />
	<circle r="10.9375" cy="215.25" cx="138.25" class="sample_pt" />
</svg>