<?xml version="1.0" encoding="UTF-8"?>
<!DOCTYPE svg PUBLIC "-//W3C//DTD SVG 1.1//EN" "http://www.w3.org/Graphics/SVG/1.1/DTD/svg11.dtd">

<svg xmlns="http://www.w3.org/2000/svg" xmlns:xlink="http://www.w3.org/1999/xlink" version="1.1" height="251px" width="851px" >
	<style type="text/css" ><![CDATA[.normal
{
	marker-end: url(#arrow_normal);
	stroke: red;
	stroke-width: 1px;
	fill: red;
}

.normal_head
{
	stroke: red;
	stroke-width: 1px;
	fill: red;
}

.circle
{
	fill: none;
	stroke: black;
}]]></style>
	<defs >
		<marker markerWidth="10" markerHeight="8" refX="0" refY="4" markerUnits="userSpaceOnUse" orient="auto" id="arrow_normal" >
			<path d="M 8 4 L 0 0 L 0 8 Z" class="normal_head" />
		</marker>
		<g id="g_circle" >
			<circle r="87.5" cy="125" cx="125" class="circle" />
		</g>
		<g id="g_circle_normals" >
			<line x2="125" y2="18.75" y1="37.5" x1="125" class="normal" />
			<line x2="78.899852718759" y2="29.272057785368" y1="46.165224058538" x1="87.035172827214" class="normal" />
			<line x2="41.930404987772" y2="58.75420855251" y1="70.444642337361" x1="56.589745284047" class="normal" />
			<line x2="21.413909330681" y2="101.35715076714" y1="105.52941827882" x1="39.69380768409" class="normal" />
			<line x2="21.413909330681" y2="148.64284923286" y1="144.47058172118" x1="39.69380768409" class="normal" />
			<line x2="41.930404987772" y2="191.24579144749" y1="179.55535766264" x1="56.589745284047" class="normal" />
			<line x2="78.899852718759" y2="220.72794221463" y1="203.83477594146" x1="87.035172827214" class="normal" />
			<line x2="125" y2="231.25" y1="212.5" x1="125" class="normal" />
			<line x2="171.10014728124" y2="220.72794221463" y1="203.83477594146" x1="162.96482717279" class="normal" />
			<line x2="208.06959501223" y2="191.24579144749" y1="179.55535766264" x1="193.41025471595" class="normal" />
			<line x2="228.58609066932" y2="148.64284923286" y1="144.47058172118" x1="210.30619231591" class="normal" />
			<line x2="228.58609066932" y2="101.35715076714" y1="105.52941827882" x1="210.30619231591" class="normal" />
			<line x2="208.06959501223" y2="58.75420855251" y1="70.444642337361" x1="193.41025471595" class="normal" />
			<line x2="171.10014728124" y2="29.272057785368" y1="46.165224058538" x1="162.96482717279" class="normal" />
		</g>
		<g id="g_bad_normals" >
			<line x2="125" y2="77.375" y1="96.125" x1="125" class="normal" />
			<line x2="71.568173164107" y2="88.385730544716" y1="98.984523939318" x1="87.035172827214" class="normal" />
			<line x2="38.457134856536" y2="102.22484145665" y1="106.99673197133" x1="56.589745284047" class="normal" />
			<line x2="20.996768274523" y2="117.16644054425" y1="118.57470803201" x1="39.69380768409" class="normal" />
			<line x2="20.996768274523" y2="132.83355945575" y1="131.42529196799" x1="39.69380768409" class="normal" />
			<line x2="38.457134856536" y2="147.77515854335" y1="143.00326802867" x1="56.589745284047" class="normal" />
			<line x2="71.568173164107" y2="161.61426945528" y1="151.01547606068" x1="87.035172827214" class="normal" />
			<line x2="125" y2="172.625" y1="153.875" x1="125" class="normal" />
			<line x2="178.43182683589" y2="161.61426945528" y1="151.01547606068" x1="162.96482717279" class="normal" />
			<line x2="211.54286514346" y2="147.77515854335" y1="143.00326802867" x1="193.41025471595" class="normal" />
			<line x2="229.00323172548" y2="132.83355945575" y1="131.42529196799" x1="210.30619231591" class="normal" />
			<line x2="229.00323172548" y2="117.16644054425" y1="118.57470803201" x1="210.30619231591" class="normal" />
			<line x2="211.54286514346" y2="102.22484145665" y1="106.99673197133" x1="193.41025471595" class="normal" />
			<line x2="178.43182683589" y2="88.385730544716" y1="98.984523939318" x1="162.96482717279" class="normal" />
		</g>
		<g id="g_good_normals" >
			<line x2="125" y2="77.375" y1="96.125" x1="125" class="normal" />
			<line x2="84.092359197344" y2="80.466901307353" y1="98.984523939318" x1="87.035172827214" class="normal" />
			<line x2="49.420444917683" y2="89.671500883207" y1="106.99673197133" x1="56.589745284047" class="normal" />
			<line x2="24.272936656021" y2="107.90891051211" y1="118.57470803201" x1="39.69380768409" class="normal" />
			<line x2="24.272936656021" y2="142.09108948789" y1="131.42529196799" x1="39.69380768409" class="normal" />
			<line x2="49.420444917683" y2="160.32849911679" y1="143.00326802867" x1="56.589745284047" class="normal" />
			<line x2="84.092359197344" y2="169.53309869265" y1="151.01547606068" x1="87.035172827214" class="normal" />
			<line x2="125" y2="172.625" y1="153.875" x1="125" class="normal" />
			<line x2="165.90764080266" y2="169.53309869265" y1="151.01547606068" x1="162.96482717279" class="normal" />
			<line x2="200.57955508232" y2="160.32849911679" y1="143.00326802867" x1="193.41025471595" class="normal" />
			<line x2="225.72706334398" y2="142.09108948789" y1="131.42529196799" x1="210.30619231591" class="normal" />
			<line x2="225.72706334398" y2="107.90891051211" y1="118.57470803201" x1="210.30619231591" class="normal" />
			<line x2="200.57955508232" y2="89.671500883207" y1="106.99673197133" x1="193.41025471595" class="normal" />
			<line x2="165.90764080266" y2="80.466901307353" y1="98.984523939318" x1="162.96482717279" class="normal" />
		</g>
		<g id="g_ellipse" >
			<ellipse ry="28.875" rx="87.5" cy="125" cx="125" class="circle" />
		</g>
	</defs>
	<use xlink:href="#g_circle" y="0" x="0" height="250" width="250" />
	<use xlink:href="#g_circle_normals" y="0" x="0" height="250" width="250" />
	<use xlink:href="#g_ellipse" y="0" x="300" height="250" width="250" />
	<use xlink:href="#g_bad_normals" y="0" x="300" height="250" width="250" />
	<use xlink:href="#g_ellipse" y="0" x="600" height="250" width="250" />
	<use xlink:href="#g_good_normals" y="0" x="600" height="250" width="250" />
</svg>