<?xml version="1.0" encoding="UTF-8" standalone="no"?>
<!DOCTYPE svg PUBLIC "-//W3C//DTD SVG 1.1//EN" "http://www.w3.org/Graphics/SVG/1.1/DTD/svg11.dtd">
<!-- Created on 2009-05-03 by Jorge Stolfi with the script make-coord-system-figure -->
<!-- This file is declared PUBLIC DOMAIN by its creator -->

<svg
  id="fig"
  xmlns="http://www.w3.org/2000/svg"
  xmlns:xlink="http://www.w3.org/1999/xlink"

  fill="none"
  fill-opacity="1"
  fill-rule="evenodd"

  stroke-linecap="round"
  stroke-linejoin="round"
  stroke-dasharray="none"
  stroke-opacity="1"
  stroke-width="1.5px"

  font-style="normal"
  font-weight="normal"
  font-size="30px"
  font-family="Bitstream Vera"

  width="620.0"
  height="600.0"
>


  <g
    transform="scale(1.0)"
  >

  <defs>
  </defs>

    <!-- The reference planes: -->
    <g stroke="rgb(185, 205, 170)" fill="rgb(215, 235, 200)" fill-opacity="0.5">
      <polygon points="+421.4,+222.7 +320.0,+300.0 +320.0,+482.9 +415.4,+392.2"/>
      <polygon points="+098.0,+316.2 +320.0,+300.0 +320.0,+482.9 +112.8,+501.7"/>
      <polygon points="+191.9,+397.7 +320.0,+300.0 +320.0,+482.9 +201.3,+595.7"/>
      <polygon points="+532.7,+284.5 +320.0,+300.0 +320.0,+482.9 +519.1,+464.8"/>
      
      <ellipse cx="0" cy="14" rx="222" ry="102" transform="translate(+320.0,+300.0)rotate(0)"/>
      
      <polygon points="+421.4,+222.7 +320.0,+300.0 +320.0,+089.7 +428.2,+030.6"/>
      <polygon points="+098.0,+316.2 +320.0,+300.0 +320.0,+089.7 +081.0,+102.2"/>
      <polygon points="+191.9,+397.7 +320.0,+300.0 +320.0,+089.7 +180.9,+165.7"/>
      <polygon points="+532.7,+284.5 +320.0,+300.0 +320.0,+089.7 +548.3,+077.8"/>
    </g>

    <!-- The A axis: -->
    <path d="M +320.0,+300.0 L +162.1,+420.4" stroke="rgb(0,0,0)"/>
    <g stroke="rgb(0,0,0)" fill="rgb(0,0,0)">
      <circle cx="+296.8" cy="+317.7" r="1px"/>
      <circle cx="+272.5" cy="+336.2" r="1px"/>
      <circle cx="+247.0" cy="+355.7" r="1px"/>
      <circle cx="+220.2" cy="+376.1" r="1px"/>
      <circle cx="+191.9" cy="+397.7" r="1px"/>
    </g>
    <path d="M +174.5,+415.4 L +170.1,+409.8 L +174.0,+406.8 L +178.4,+412.5" stroke="rgb(0,0,0)" fill="rgb(0,0,0)" />
    <path d="M +162.1,+420.4 L +170.1,+409.8 L +178.4,+412.5" stroke="rgb(0,0,0)" fill="rgb(0,0,0)" />
    <path d="M +162.1,+420.4 L +174.5,+415.4 L +174.0,+406.8" stroke="rgb(0,0,0)" fill="rgb(0,0,0)" />
    <text x="+157.1" y="+443.4" stroke="rgb(255,255,255)" stroke-width="3px" fill="none" text-anchor="end"><tspan font-style="italic">A</tspan></text>
    <text x="+157.1" y="+443.4" stroke="none" fill="rgb(0,0,0)" text-anchor="end"><tspan font-style="italic">A</tspan></text>

    <!-- The Z axis: -->
    <path d="M +320.0,+300.0 L +320.0,+043.8" stroke="rgb(0,0,0)"/>
    <g stroke="rgb(0,0,0)" fill="rgb(0,0,0)">
      <circle cx="+320.0" cy="+260.3" r="1px"/>
      <circle cx="+320.0" cy="+219.5" r="1px"/>
      <circle cx="+320.0" cy="+177.5" r="1px"/>
      <circle cx="+320.0" cy="+134.2" r="1px"/>
      <circle cx="+320.0" cy="+089.7" r="1px"/>
    </g>
    <path d="M +315.9,+061.6 L +322.4,+061.1 L +324.1,+063.1 L +317.5,+063.6" stroke="rgb(0,0,0)" fill="rgb(0,0,0)" />
    <path d="M +320.0,+043.8 L +322.4,+061.1 L +317.5,+063.6" stroke="rgb(0,0,0)" fill="rgb(0,0,0)" />
    <path d="M +320.0,+043.8 L +315.9,+061.6 L +324.1,+063.1" stroke="rgb(0,0,0)" fill="rgb(0,0,0)" />
    <text x="+315.0" y="+038.8" stroke="rgb(255,255,255)" stroke-width="3px" fill="none" text-anchor="end"><tspan font-style="italic">Z</tspan></text>
    <text x="+315.0" y="+038.8" stroke="none" fill="rgb(0,0,0)" text-anchor="end"><tspan font-style="italic">Z</tspan></text>

    <path d="M +320.0,+300.0 L +320.0,+134.2" stroke="rgb(200,0,100)"/> -->
    <text x="+325.0" y="+235.1" stroke="rgb(255,255,255)" stroke-width="3px" fill="none" text-anchor="start"><tspan font-style="italic">r</tspan></text>
    <text x="+325.0" y="+235.1" stroke="none" fill="rgb(0,0,0)" text-anchor="start"><tspan font-style="italic">r</tspan></text>
    <path d="M +320.0,+300.0 L +224.8,+312.7" stroke="rgb(0,0,0)" stroke-dasharray="3,4" stroke-dashoffset="9"/> -->
    <path d="M +320.0,+300.0 L +483.8,+234.4" stroke="rgb(0,0,0)" stroke-dasharray="3,4" stroke-dashoffset="9"/> -->
    <path d="M +320.0,+245.4 L +224.8,+312.7" stroke="rgb(0,0,0)" stroke-dasharray="3,4" stroke-dashoffset="9"/> -->
    <path d="M +320.0,+245.4 L +483.8,+234.4" stroke="rgb(0,0,0)" stroke-dasharray="3,4" stroke-dashoffset="9"/> -->
    <path d="M +320.0,+300.0 L +220.2,+376.1" stroke="rgb(0,0,0)" stroke-dasharray="3,4" stroke-dashoffset="9"/> -->
    <path d="M +320.0,+300.0 L +490.9,+287.6" stroke="rgb(0,0,0)" stroke-dasharray="3,4" stroke-dashoffset="9"/> -->
    <g stroke="none" fill="rgb(100,0,200)" fill-opacity="0.25">
      <path d="M +320.0,+134.2 L +316.6,+136.4 L +320.0,+300.0"/>
      <path d="M +316.6,+136.4 L +313.2,+138.7 L +320.0,+300.0"/>
      <path d="M +313.2,+138.7 L +309.8,+141.3 L +320.0,+300.0"/>
      <path d="M +309.8,+141.3 L +306.7,+143.8 L +320.0,+300.0"/>
      <path d="M +306.7,+143.8 L +303.6,+146.5 L +320.0,+300.0"/>
      <path d="M +303.6,+146.5 L +300.5,+149.4 L +320.0,+300.0"/>
      <path d="M +300.5,+149.4 L +297.4,+152.5 L +320.0,+300.0"/>
      <path d="M +297.4,+152.5 L +294.6,+155.4 L +320.0,+300.0"/>
      <path d="M +294.6,+155.4 L +291.9,+158.4 L +320.0,+300.0"/>
      <path d="M +291.9,+158.4 L +289.1,+161.6 L +320.0,+300.0"/>
      <path d="M +289.1,+161.6 L +286.4,+164.9 L +320.0,+300.0"/>
      <path d="M +286.4,+164.9 L +283.7,+168.3 L +320.0,+300.0"/>
      <path d="M +283.7,+168.3 L +281.3,+171.5 L +320.0,+300.0"/>
      <path d="M +281.3,+171.5 L +278.9,+174.8 L +320.0,+300.0"/>
      <path d="M +278.9,+174.8 L +276.6,+178.2 L +320.0,+300.0"/>
      <path d="M +276.6,+178.2 L +274.2,+181.7 L +320.0,+300.0"/>
      <path d="M +274.2,+181.7 L +271.9,+185.3 L +320.0,+300.0"/>
      <path d="M +271.9,+185.3 L +269.6,+189.0 L +320.0,+300.0"/>
      <path d="M +269.6,+189.0 L +267.4,+192.8 L +320.0,+300.0"/>
      <path d="M +267.4,+192.8 L +265.4,+196.2 L +320.0,+300.0"/>
      <path d="M +265.4,+196.2 L +263.4,+199.8 L +320.0,+300.0"/>
      <path d="M +263.4,+199.8 L +261.4,+203.3 L +320.0,+300.0"/>
      <path d="M +261.4,+203.3 L +259.5,+207.0 L +320.0,+300.0"/>
      <path d="M +259.5,+207.0 L +257.6,+210.7 L +320.0,+300.0"/>
      <path d="M +257.6,+210.7 L +255.8,+214.5 L +320.0,+300.0"/>
      <path d="M +255.8,+214.5 L +254.0,+218.3 L +320.0,+300.0"/>
      <path d="M +254.0,+218.3 L +252.2,+222.2 L +320.0,+300.0"/>
      <path d="M +252.2,+222.2 L +250.4,+226.2 L +320.0,+300.0"/>
      <path d="M +250.4,+226.2 L +248.7,+230.2 L +320.0,+300.0"/>
      <path d="M +248.7,+230.2 L +247.1,+234.2 L +320.0,+300.0"/>
      <path d="M +247.1,+234.2 L +245.4,+238.3 L +320.0,+300.0"/>
      <path d="M +245.4,+238.3 L +244.0,+242.0 L +320.0,+300.0"/>
      <path d="M +244.0,+242.0 L +242.6,+245.8 L +320.0,+300.0"/>
      <path d="M +242.6,+245.8 L +241.2,+249.6 L +320.0,+300.0"/>
      <path d="M +241.2,+249.6 L +239.9,+253.4 L +320.0,+300.0"/>
      <path d="M +239.9,+253.4 L +238.6,+257.2 L +320.0,+300.0"/>
      <path d="M +238.6,+257.2 L +237.4,+261.1 L +320.0,+300.0"/>
      <path d="M +237.4,+261.1 L +236.1,+265.0 L +320.0,+300.0"/>
      <path d="M +236.1,+265.0 L +235.0,+268.9 L +320.0,+300.0"/>
      <path d="M +235.0,+268.9 L +233.8,+272.8 L +320.0,+300.0"/>
      <path d="M +233.8,+272.8 L +232.7,+276.7 L +320.0,+300.0"/>
      <path d="M +232.7,+276.7 L +231.7,+280.7 L +320.0,+300.0"/>
      <path d="M +231.7,+280.7 L +230.7,+284.6 L +320.0,+300.0"/>
      <path d="M +230.7,+284.6 L +229.7,+288.6 L +320.0,+300.0"/>
      <path d="M +229.7,+288.6 L +228.8,+292.6 L +320.0,+300.0"/>
      <path d="M +228.8,+292.6 L +227.9,+296.5 L +320.0,+300.0"/>
      <path d="M +227.9,+296.5 L +227.1,+300.5 L +320.0,+300.0"/>
      <path d="M +227.1,+300.5 L +226.3,+304.4 L +320.0,+300.0"/>
      <path d="M +226.3,+304.4 L +225.5,+308.4 L +320.0,+300.0"/>
      <path d="M +225.5,+308.4 L +224.8,+312.4 L +320.0,+300.0"/>
      <path d="M +224.8,+312.4 L +224.8,+312.7 L +320.0,+300.0"/>
    </g>
    <g stroke="rgb(200,0,100)" fill="none">
      <path d="M +320.0,+134.2 L +316.6,+136.4" />
      <path d="M +316.6,+136.4 L +313.2,+138.7" />
      <path d="M +313.2,+138.7 L +309.8,+141.3" />
      <path d="M +309.8,+141.3 L +306.7,+143.8" />
      <path d="M +306.7,+143.8 L +303.6,+146.5" />
      <path d="M +303.6,+146.5 L +300.5,+149.4" />
      <path d="M +300.5,+149.4 L +297.4,+152.5" />
      <path d="M +297.4,+152.5 L +294.6,+155.4" />
      <path d="M +294.6,+155.4 L +291.9,+158.4" />
      <path d="M +291.9,+158.4 L +289.1,+161.6" />
      <path d="M +289.1,+161.6 L +286.4,+164.9" />
      <path d="M +286.4,+164.9 L +283.7,+168.3" />
      <path d="M +283.7,+168.3 L +281.3,+171.5" />
      <path d="M +281.3,+171.5 L +278.9,+174.8" />
      <path d="M +278.9,+174.8 L +276.6,+178.2" />
      <path d="M +276.6,+178.2 L +274.2,+181.7" />
      <path d="M +274.2,+181.7 L +271.9,+185.3" />
      <path d="M +271.9,+185.3 L +269.6,+189.0" />
      <path d="M +269.6,+189.0 L +267.4,+192.8" />
      <path d="M +267.4,+192.8 L +265.4,+196.2" />
      <path d="M +265.4,+196.2 L +263.4,+199.8" />
      <path d="M +263.4,+199.8 L +261.4,+203.3" />
      <path d="M +261.4,+203.3 L +259.5,+207.0" />
      <path d="M +259.5,+207.0 L +257.6,+210.7" />
      <path d="M +257.6,+210.7 L +255.8,+214.5" />
      <path d="M +255.8,+214.5 L +254.0,+218.3" />
      <path d="M +254.0,+218.3 L +252.2,+222.2" />
      <path d="M +252.2,+222.2 L +250.4,+226.2" />
      <path d="M +250.4,+226.2 L +248.7,+230.2" />
      <path d="M +248.7,+230.2 L +247.1,+234.2" />
      <path d="M +247.1,+234.2 L +245.4,+238.3" />
      <path d="M +245.4,+238.3 L +244.0,+242.0" />
      <path d="M +244.0,+242.0 L +242.6,+245.8" />
      <path d="M +242.6,+245.8 L +241.2,+249.6" />
      <path d="M +241.2,+249.6 L +239.9,+253.4" />
      <path d="M +239.9,+253.4 L +238.6,+257.2" />
      <path d="M +238.6,+257.2 L +237.4,+261.1" />
      <path d="M +237.4,+261.1 L +236.1,+265.0" />
      <path d="M +236.1,+265.0 L +235.0,+268.9" />
      <path d="M +235.0,+268.9 L +233.8,+272.8" />
      <path d="M +233.8,+272.8 L +232.7,+276.7" />
      <path d="M +232.7,+276.7 L +231.7,+280.7" />
      <path d="M +231.7,+280.7 L +230.7,+284.6" />
      <path d="M +230.7,+284.6 L +229.7,+288.6" />
      <path d="M +229.7,+288.6 L +228.8,+292.6" />
      <path d="M +228.8,+292.6 L +227.9,+296.5" />
      <path d="M +227.9,+296.5 L +227.1,+300.5" />
      <path d="M +227.1,+300.5 L +226.3,+304.4" />
      <path d="M +226.3,+304.4 L +225.5,+308.4" />
      <path d="M +225.5,+308.4 L +224.8,+312.4" />
      <path d="M +224.8,+312.4 L +224.8,+312.7" />
    </g>
    <text x="+259.8" y="+197.3" stroke="rgb(255,255,255)" stroke-width="3px" fill="none" text-anchor="end"><tspan font-style="italic">&#952;</tspan></text>
    <text x="+259.8" y="+197.3" stroke="none" fill="rgb(0,0,0)" text-anchor="end"><tspan font-style="italic">&#952;</tspan></text>
    <g stroke="rgb(0,0,0)" fill="none">
      <path d="M +224.4,+314.7 L +223.8,+318.6" />
      <path d="M +223.4,+321.6 L +222.8,+325.5" />
      <path d="M +222.4,+328.5 L +222.0,+332.5" />
      <path d="M +221.6,+335.5 L +221.3,+339.5" />
      <path d="M +221.0,+342.4 L +220.7,+346.4" />
      <path d="M +220.5,+349.4 L +220.3,+353.4" />
      <path d="M +220.2,+356.4 L +220.1,+360.4" />
      <path d="M +220.0,+363.4 L +220.0,+367.4" />
      <path d="M +220.0,+370.4 L +220.1,+374.4" />
    </g>
    <g stroke="rgb(0,0,0)" fill="none">
      <path d="M +322.0,+134.1 L +326.0,+134.0" />
      <path d="M +329.0,+133.9 L +333.0,+134.0" />
      <path d="M +336.0,+134.0 L +340.0,+134.2" />
      <path d="M +343.0,+134.3 L +347.0,+134.6" />
      <path d="M +350.0,+134.9 L +353.9,+135.4" />
      <path d="M +356.9,+135.7 L +360.9,+136.3" />
      <path d="M +363.8,+136.8 L +367.7,+137.6" />
      <path d="M +370.7,+138.2 L +374.6,+139.1" />
      <path d="M +377.5,+139.9 L +381.3,+140.9" />
      <path d="M +384.2,+141.8 L +388.0,+143.0" />
      <path d="M +390.9,+143.9 L +394.6,+145.3" />
      <path d="M +397.4,+146.4 L +401.1,+147.9" />
      <path d="M +403.9,+149.1 L +407.5,+150.8" />
      <path d="M +410.2,+152.1 L +413.8,+153.9" />
      <path d="M +416.4,+155.4 L +419.9,+157.3" />
      <path d="M +422.4,+158.9 L +425.8,+161.0" />
      <path d="M +428.3,+162.7 L +431.6,+165.0" />
      <path d="M +434.0,+166.7 L +437.2,+169.2" />
      <path d="M +439.5,+171.1 L +442.6,+173.6" />
      <path d="M +444.8,+175.6 L +447.8,+178.3" />
      <path d="M +449.9,+180.4 L +452.7,+183.3" />
      <path d="M +454.8,+185.5 L +457.4,+188.5" />
      <path d="M +459.4,+190.8 L +461.9,+193.9" />
      <path d="M +463.7,+196.3 L +466.0,+199.5" />
      <path d="M +467.7,+202.0 L +469.9,+205.3" />
      <path d="M +471.5,+207.9 L +473.5,+211.3" />
      <path d="M +475.0,+214.0 L +476.8,+217.5" />
      <path d="M +478.1,+220.2 L +479.8,+223.9" />
      <path d="M +480.9,+226.6 L +482.4,+230.3" />
      <path d="M +483.4,+233.2 L +483.8,+234.4" />
    </g>
    <g stroke="rgb(0,0,0)" fill="none">
      <path d="M +484.5,+236.3 L +485.6,+240.1" />
      <path d="M +486.5,+243.0 L +487.4,+246.9" />
      <path d="M +488.1,+249.8 L +488.9,+253.7" />
      <path d="M +489.4,+256.7 L +490.0,+260.6" />
      <path d="M +490.3,+263.6 L +490.7,+267.6" />
      <path d="M +490.9,+270.6 L +491.1,+274.6" />
      <path d="M +491.2,+277.6 L +491.1,+281.6" />
      <path d="M +491.1,+284.6 L +490.9,+287.6" />
    </g>
    <g stroke="none" fill="rgb(100,0,200)" fill-opacity="0.25">
      <path d="M +224.8,+312.7 L +228.6,+313.8 L +320.0,+245.4"/>
      <path d="M +228.6,+313.8 L +232.5,+314.8 L +320.0,+245.4"/>
      <path d="M +232.5,+314.8 L +236.5,+315.8 L +320.0,+245.4"/>
      <path d="M +236.5,+315.8 L +240.6,+316.8 L +320.0,+245.4"/>
      <path d="M +240.6,+316.8 L +244.7,+317.7 L +320.0,+245.4"/>
      <path d="M +244.7,+317.7 L +248.9,+318.5 L +320.0,+245.4"/>
      <path d="M +248.9,+318.5 L +253.1,+319.3 L +320.0,+245.4"/>
      <path d="M +253.1,+319.3 L +257.4,+320.1 L +320.0,+245.4"/>
      <path d="M +257.4,+320.1 L +261.7,+320.8 L +320.0,+245.4"/>
      <path d="M +261.7,+320.8 L +265.7,+321.4 L +320.0,+245.4"/>
      <path d="M +265.7,+321.4 L +269.7,+321.9 L +320.0,+245.4"/>
      <path d="M +269.7,+321.9 L +273.7,+322.4 L +320.0,+245.4"/>
      <path d="M +273.7,+322.4 L +277.8,+322.9 L +320.0,+245.4"/>
      <path d="M +277.8,+322.9 L +281.8,+323.3 L +320.0,+245.4"/>
      <path d="M +281.8,+323.3 L +285.9,+323.7 L +320.0,+245.4"/>
      <path d="M +285.9,+323.7 L +290.1,+324.1 L +320.0,+245.4"/>
      <path d="M +290.1,+324.1 L +294.2,+324.3 L +320.0,+245.4"/>
      <path d="M +294.2,+324.3 L +298.4,+324.6 L +320.0,+245.4"/>
      <path d="M +298.4,+324.6 L +302.6,+324.8 L +320.0,+245.4"/>
      <path d="M +302.6,+324.8 L +306.8,+325.0 L +320.0,+245.4"/>
      <path d="M +306.8,+325.0 L +311.0,+325.1 L +320.0,+245.4"/>
      <path d="M +311.0,+325.1 L +315.2,+325.2 L +320.0,+245.4"/>
      <path d="M +315.2,+325.2 L +319.4,+325.2 L +320.0,+245.4"/>
      <path d="M +319.4,+325.2 L +323.6,+325.2 L +320.0,+245.4"/>
      <path d="M +323.6,+325.2 L +327.8,+325.1 L +320.0,+245.4"/>
      <path d="M +327.8,+325.1 L +332.0,+325.0 L +320.0,+245.4"/>
      <path d="M +332.0,+325.0 L +336.2,+324.9 L +320.0,+245.4"/>
      <path d="M +336.2,+324.9 L +340.4,+324.7 L +320.0,+245.4"/>
      <path d="M +340.4,+324.7 L +344.6,+324.4 L +320.0,+245.4"/>
      <path d="M +344.6,+324.4 L +348.8,+324.1 L +320.0,+245.4"/>
      <path d="M +348.8,+324.1 L +352.9,+323.8 L +320.0,+245.4"/>
      <path d="M +352.9,+323.8 L +357.0,+323.4 L +320.0,+245.4"/>
      <path d="M +357.0,+323.4 L +361.1,+323.0 L +320.0,+245.4"/>
      <path d="M +361.1,+323.0 L +365.2,+322.6 L +320.0,+245.4"/>
      <path d="M +365.2,+322.6 L +369.2,+322.1 L +320.0,+245.4"/>
      <path d="M +369.2,+322.1 L +373.2,+321.5 L +320.0,+245.4"/>
      <path d="M +373.2,+321.5 L +377.2,+321.0 L +320.0,+245.4"/>
      <path d="M +377.2,+321.0 L +381.1,+320.3 L +320.0,+245.4"/>
      <path d="M +381.1,+320.3 L +385.0,+319.7 L +320.0,+245.4"/>
      <path d="M +385.0,+319.7 L +388.8,+319.0 L +320.0,+245.4"/>
      <path d="M +388.8,+319.0 L +392.6,+318.2 L +320.0,+245.4"/>
      <path d="M +392.6,+318.2 L +396.4,+317.4 L +320.0,+245.4"/>
      <path d="M +396.4,+317.4 L +400.1,+316.6 L +320.0,+245.4"/>
      <path d="M +400.1,+316.6 L +403.7,+315.8 L +320.0,+245.4"/>
      <path d="M +403.7,+315.8 L +407.3,+314.9 L +320.0,+245.4"/>
      <path d="M +407.3,+314.9 L +410.8,+313.9 L +320.0,+245.4"/>
      <path d="M +410.8,+313.9 L +414.3,+313.0 L +320.0,+245.4"/>
      <path d="M +414.3,+313.0 L +418.1,+311.8 L +320.0,+245.4"/>
      <path d="M +418.1,+311.8 L +421.9,+310.7 L +320.0,+245.4"/>
      <path d="M +421.9,+310.7 L +425.6,+309.5 L +320.0,+245.4"/>
      <path d="M +425.6,+309.5 L +429.2,+308.2 L +320.0,+245.4"/>
      <path d="M +429.2,+308.2 L +432.7,+306.9 L +320.0,+245.4"/>
      <path d="M +432.7,+306.9 L +436.1,+305.6 L +320.0,+245.4"/>
      <path d="M +436.1,+305.6 L +439.8,+304.1 L +320.0,+245.4"/>
      <path d="M +439.8,+304.1 L +443.3,+302.5 L +320.0,+245.4"/>
      <path d="M +443.3,+302.5 L +446.8,+300.9 L +320.0,+245.4"/>
      <path d="M +446.8,+300.9 L +450.1,+299.2 L +320.0,+245.4"/>
      <path d="M +450.1,+299.2 L +453.3,+297.6 L +320.0,+245.4"/>
      <path d="M +453.3,+297.6 L +456.8,+295.6 L +320.0,+245.4"/>
      <path d="M +456.8,+295.6 L +460.1,+293.6 L +320.0,+245.4"/>
      <path d="M +460.1,+293.6 L +463.3,+291.6 L +320.0,+245.4"/>
      <path d="M +463.3,+291.6 L +466.2,+289.5 L +320.0,+245.4"/>
      <path d="M +466.2,+289.5 L +469.4,+287.1 L +320.0,+245.4"/>
      <path d="M +469.4,+287.1 L +472.4,+284.6 L +320.0,+245.4"/>
      <path d="M +472.4,+284.6 L +475.1,+282.1 L +320.0,+245.4"/>
      <path d="M +475.1,+282.1 L +477.9,+279.3 L +320.0,+245.4"/>
      <path d="M +477.9,+279.3 L +480.4,+276.4 L +320.0,+245.4"/>
      <path d="M +480.4,+276.4 L +482.6,+273.4 L +320.0,+245.4"/>
      <path d="M +482.6,+273.4 L +484.7,+270.1 L +320.0,+245.4"/>
      <path d="M +484.7,+270.1 L +486.4,+266.7 L +320.0,+245.4"/>
      <path d="M +486.4,+266.7 L +487.8,+263.3 L +320.0,+245.4"/>
      <path d="M +487.8,+263.3 L +488.8,+259.4 L +320.0,+245.4"/>
      <path d="M +488.8,+259.4 L +489.4,+255.6 L +320.0,+245.4"/>
      <path d="M +489.4,+255.6 L +489.5,+251.7 L +320.0,+245.4"/>
      <path d="M +489.5,+251.7 L +489.1,+247.9 L +320.0,+245.4"/>
      <path d="M +489.1,+247.9 L +488.3,+244.2 L +320.0,+245.4"/>
      <path d="M +488.3,+244.2 L +487.0,+240.4 L +320.0,+245.4"/>
      <path d="M +487.0,+240.4 L +485.2,+236.7 L +320.0,+245.4"/>
      <path d="M +485.2,+236.7 L +483.8,+234.4 L +320.0,+245.4"/>
    </g>
    <g stroke="rgb(200,0,100)" fill="none">
      <path d="M +224.8,+312.7 L +228.6,+313.8" />
      <path d="M +228.6,+313.8 L +232.5,+314.8" />
      <path d="M +232.5,+314.8 L +236.5,+315.8" />
      <path d="M +236.5,+315.8 L +240.6,+316.8" />
      <path d="M +240.6,+316.8 L +244.7,+317.7" />
      <path d="M +244.7,+317.7 L +248.9,+318.5" />
      <path d="M +248.9,+318.5 L +253.1,+319.3" />
      <path d="M +253.1,+319.3 L +257.4,+320.1" />
      <path d="M +257.4,+320.1 L +261.7,+320.8" />
      <path d="M +261.7,+320.8 L +265.7,+321.4" />
      <path d="M +265.7,+321.4 L +269.7,+321.9" />
      <path d="M +269.7,+321.9 L +273.7,+322.4" />
      <path d="M +273.7,+322.4 L +277.8,+322.9" />
      <path d="M +277.8,+322.9 L +281.8,+323.3" />
      <path d="M +281.8,+323.3 L +285.9,+323.7" />
      <path d="M +285.9,+323.7 L +290.1,+324.1" />
      <path d="M +290.1,+324.1 L +294.2,+324.3" />
      <path d="M +294.2,+324.3 L +298.4,+324.6" />
      <path d="M +298.4,+324.6 L +302.6,+324.8" />
      <path d="M +302.6,+324.8 L +306.8,+325.0" />
      <path d="M +306.8,+325.0 L +311.0,+325.1" />
      <path d="M +311.0,+325.1 L +315.2,+325.2" />
      <path d="M +315.2,+325.2 L +319.4,+325.2" />
      <path d="M +319.4,+325.2 L +323.6,+325.2" />
      <path d="M +323.6,+325.2 L +327.8,+325.1" />
      <path d="M +327.8,+325.1 L +332.0,+325.0" />
      <path d="M +332.0,+325.0 L +336.2,+324.9" />
      <path d="M +336.2,+324.9 L +340.4,+324.7" />
      <path d="M +340.4,+324.7 L +344.6,+324.4" />
      <path d="M +344.6,+324.4 L +348.8,+324.1" />
      <path d="M +348.8,+324.1 L +352.9,+323.8" />
      <path d="M +352.9,+323.8 L +357.0,+323.4" />
      <path d="M +357.0,+323.4 L +361.1,+323.0" />
      <path d="M +361.1,+323.0 L +365.2,+322.6" />
      <path d="M +365.2,+322.6 L +369.2,+322.1" />
      <path d="M +369.2,+322.1 L +373.2,+321.5" />
      <path d="M +373.2,+321.5 L +377.2,+321.0" />
      <path d="M +377.2,+321.0 L +381.1,+320.3" />
      <path d="M +381.1,+320.3 L +385.0,+319.7" />
      <path d="M +385.0,+319.7 L +388.8,+319.0" />
      <path d="M +388.8,+319.0 L +392.6,+318.2" />
      <path d="M +392.6,+318.2 L +396.4,+317.4" />
      <path d="M +396.4,+317.4 L +400.1,+316.6" />
      <path d="M +400.1,+316.6 L +403.7,+315.8" />
      <path d="M +403.7,+315.8 L +407.3,+314.9" />
      <path d="M +407.3,+314.9 L +410.8,+313.9" />
      <path d="M +410.8,+313.9 L +414.3,+313.0" />
      <path d="M +414.3,+313.0 L +418.1,+311.8" />
      <path d="M +418.1,+311.8 L +421.9,+310.7" />
      <path d="M +421.9,+310.7 L +425.6,+309.5" />
      <path d="M +425.6,+309.5 L +429.2,+308.2" />
      <path d="M +429.2,+308.2 L +432.7,+306.9" />
      <path d="M +432.7,+306.9 L +436.1,+305.6" />
      <path d="M +436.1,+305.6 L +439.8,+304.1" />
      <path d="M +439.8,+304.1 L +443.3,+302.5" />
      <path d="M +443.3,+302.5 L +446.8,+300.9" />
      <path d="M +446.8,+300.9 L +450.1,+299.2" />
      <path d="M +450.1,+299.2 L +453.3,+297.6" />
      <path d="M +453.3,+297.6 L +456.8,+295.6" />
      <path d="M +456.8,+295.6 L +460.1,+293.6" />
      <path d="M +460.1,+293.6 L +463.3,+291.6" />
      <path d="M +463.3,+291.6 L +466.2,+289.5" />
      <path d="M +466.2,+289.5 L +469.4,+287.1" />
      <path d="M +469.4,+287.1 L +472.4,+284.6" />
      <path d="M +472.4,+284.6 L +475.1,+282.1" />
      <path d="M +475.1,+282.1 L +477.9,+279.3" />
      <path d="M +477.9,+279.3 L +480.4,+276.4" />
      <path d="M +480.4,+276.4 L +482.6,+273.4" />
      <path d="M +482.6,+273.4 L +484.7,+270.1" />
      <path d="M +484.7,+270.1 L +486.4,+266.7" />
      <path d="M +486.4,+266.7 L +487.8,+263.3" />
      <path d="M +487.8,+263.3 L +488.8,+259.4" />
      <path d="M +488.8,+259.4 L +489.4,+255.6" />
      <path d="M +489.4,+255.6 L +489.5,+251.7" />
      <path d="M +489.5,+251.7 L +489.1,+247.9" />
      <path d="M +489.1,+247.9 L +488.3,+244.2" />
      <path d="M +488.3,+244.2 L +487.0,+240.4" />
      <path d="M +487.0,+240.4 L +485.2,+236.7" />
      <path d="M +485.2,+236.7 L +483.8,+234.4" />
    </g>
    <text x="+427.5" y="+330.9" stroke="rgb(255,255,255)" stroke-width="3px" fill="none" text-anchor="start"><tspan font-style="italic">&#966;</tspan></text>
    <text x="+427.5" y="+330.9" stroke="none" fill="rgb(0,0,0)" text-anchor="start"><tspan font-style="italic">&#966;</tspan></text>
    <g stroke="rgb(0,0,0)" fill="none">
      <path d="M +222.1,+376.7 L +225.9,+377.9" />
      <path d="M +228.8,+378.7 L +232.7,+379.7" />
      <path d="M +235.6,+380.5 L +239.5,+381.4" />
      <path d="M +242.4,+382.1 L +246.3,+382.9" />
      <path d="M +249.2,+383.5 L +253.2,+384.3" />
      <path d="M +256.1,+384.8 L +260.1,+385.5" />
      <path d="M +263.0,+386.0 L +267.0,+386.6" />
      <path d="M +269.9,+387.0 L +273.9,+387.5" />
      <path d="M +276.9,+387.9 L +280.9,+388.3" />
      <path d="M +283.9,+388.6 L +287.8,+389.0" />
      <path d="M +290.8,+389.2 L +294.8,+389.5" />
      <path d="M +297.8,+389.7 L +301.8,+389.9" />
      <path d="M +304.8,+390.0 L +308.8,+390.2" />
      <path d="M +311.8,+390.2 L +315.8,+390.3" />
      <path d="M +318.8,+390.3 L +322.8,+390.3" />
      <path d="M +325.8,+390.3 L +329.8,+390.2" />
      <path d="M +332.8,+390.1 L +336.8,+389.9" />
      <path d="M +339.8,+389.8 L +343.8,+389.6" />
      <path d="M +346.8,+389.4 L +350.8,+389.1" />
      <path d="M +353.8,+388.8 L +357.7,+388.4" />
      <path d="M +360.7,+388.1 L +364.7,+387.7" />
      <path d="M +367.7,+387.3 L +371.6,+386.8" />
      <path d="M +374.6,+386.3 L +378.6,+385.7" />
      <path d="M +381.5,+385.2 L +385.4,+384.5" />
      <path d="M +388.4,+384.0 L +392.3,+383.2" />
      <path d="M +395.3,+382.6 L +399.2,+381.7" />
      <path d="M +402.1,+381.0 L +406.0,+380.1" />
      <path d="M +408.9,+379.3 L +412.7,+378.3" />
      <path d="M +415.6,+377.4 L +419.4,+376.3" />
      <path d="M +422.3,+375.3 L +426.1,+374.1" />
      <path d="M +428.9,+373.1 L +432.7,+371.7" />
      <path d="M +435.5,+370.6 L +439.1,+369.1" />
      <path d="M +441.9,+367.9 L +445.6,+366.3" />
      <path d="M +448.3,+365.0 L +451.8,+363.2" />
      <path d="M +454.5,+361.8 L +458.0,+359.9" />
      <path d="M +460.6,+358.4 L +464.0,+356.3" />
      <path d="M +466.5,+354.6 L +469.7,+352.3" />
      <path d="M +472.1,+350.5 L +475.2,+348.0" />
      <path d="M +477.5,+346.0 L +480.4,+343.3" />
      <path d="M +482.5,+341.2 L +485.2,+338.2" />
      <path d="M +487.1,+335.8 L +489.4,+332.6" />
      <path d="M +491.0,+330.0 L +492.8,+326.5" />
      <path d="M +494.1,+323.8 L +495.4,+320.0" />
      <path d="M +496.1,+317.1 L +496.8,+313.2" />
      <path d="M +497.0,+310.2 L +496.9,+306.2" />
      <path d="M +496.6,+303.2 L +495.8,+299.3" />
      <path d="M +495.0,+296.4 L +493.5,+292.7" />
      <path d="M +492.2,+290.0 L +490.9,+287.6" />
    </g>
    <circle cx="+483.8" cy="+234.4" r="4.5208643810272084" stroke="rgb(0,0,0)" fill="rgb(0,0,0)"/> -->
    <text x="+503.8" y="+243.4" stroke="rgb(255,255,255)" stroke-width="3px" fill="none" text-anchor="start"><tspan>(</tspan><tspan font-style="italic">r</tspan><tspan>,</tspan><tspan font-style="italic">&#952;</tspan><tspan>,</tspan><tspan font-style="italic">&#966;</tspan><tspan>)</tspan></text>
    <text x="+503.8" y="+243.4" stroke="none" fill="rgb(0,0,0)" text-anchor="start"><tspan>(</tspan><tspan font-style="italic">r</tspan><tspan>,</tspan><tspan font-style="italic">&#952;</tspan><tspan>,</tspan><tspan font-style="italic">&#966;</tspan><tspan>)</tspan></text>

  </g>
</svg>
